<?xml version="1.0" encoding="UTF-8"?>
<svg version="1.1" xmlns="http://www.w3.org/2000/svg" width="512" height="512">
<path d="M0 0 C2.92225175 1.82011327 5.18347273 4.13024491 7.56738281 6.59861755 C8.27265452 7.2963483 8.97792624 7.99407905 9.70456982 8.71295315 C12.05683226 11.04972866 14.37942053 13.41390292 16.703125 15.77905273 C18.38582708 17.46237451 20.07028536 19.1439423 21.75636292 20.82388306 C25.8513978 24.91303316 29.92766228 29.02021393 33.99595803 33.13595443 C38.73378611 37.92714444 43.49382349 42.69601067 48.25521386 47.4637667 C56.74711094 55.96828383 65.22064215 64.49086017 73.68310547 73.0246582 C81.8980242 81.30875981 90.12270602 89.58297925 98.35986328 97.8449707 C98.86770961 98.35435342 99.37555594 98.86373613 99.89879155 99.38855468 C101.94003909 101.43591312 103.98133574 103.48322257 106.02270234 105.53046229 C115.29138078 114.82611417 124.55317529 124.12862546 133.8125 133.43359375 C134.5185308 134.14308356 134.5185308 134.14308356 135.23882484 134.86690649 C141.11570351 140.77292411 146.98907855 146.68239944 152.85688591 152.59743118 C154.49398368 154.2470801 156.13191636 155.89590091 157.77072334 157.54385185 C159.99902641 159.78501945 162.22419942 162.02924628 164.44848633 164.2743988 C165.10478657 164.93324316 165.76108681 165.59208752 166.43727493 166.27089685 C167.32542704 167.16943591 167.32542704 167.16943591 168.23152161 168.08612728 C168.74572064 168.60428318 169.25991968 169.12243908 169.78970051 169.65629667 C172.25467803 172.39297344 172.51707235 175.17255301 172.47443259 178.80017322 C171.87926582 181.55981459 170.81959259 182.7593328 168.9090786 184.82222843 C168.27072476 185.51700106 167.63237092 186.21177368 166.97467303 186.92760003 C166.32303093 187.61149202 165.67138883 188.29538401 165 189 C164.43113422 189.59780584 163.86226843 190.19561168 163.27616429 190.81153286 C161.51776244 192.62999467 159.73972827 194.4269809 157.95474243 196.21934509 C157.28132541 196.89926107 156.60790839 197.57917704 155.91408479 198.27969652 C153.67894018 200.53506167 151.44035746 202.78698002 149.20166016 205.03881836 C147.58948438 206.66382132 145.97746352 208.28897798 144.36558533 209.91427612 C129.71583966 224.67940835 115.0368978 239.41564984 100.35140419 254.14522457 C98.39112046 256.11149632 96.43088575 258.07781691 94.47070312 260.04418945 C93.98357099 260.53285457 93.49643886 261.02151968 92.99454515 261.52499283 C85.08971732 269.45557912 77.20061461 277.40162608 69.31753428 285.35382359 C61.21077214 293.53107216 53.08865034 301.69278048 44.95254171 309.84083658 C40.38984444 314.41109902 35.83423022 318.98794221 31.29494095 323.58146477 C27.02929762 327.89747775 22.74519983 332.19426668 18.44615364 336.47700119 C16.87225791 338.05150133 15.30519927 339.63287029 13.74558449 341.22151756 C11.61483992 343.38983636 9.46082014 345.53203916 7.29922485 347.66954041 C6.6882088 348.30317707 6.07719274 348.93681374 5.44766104 349.58965153 C1.46616491 353.45918579 -1.51935344 354.74809744 -7.07650381 355.09889102 C-9.74835009 354.96152573 -10.89340556 354.30997915 -12.73657227 352.38012695 C-13.7178862 351.4004747 -13.7178862 351.4004747 -14.71902466 350.40103149 C-15.47174652 349.6086911 -16.22446838 348.81635071 -17 348 C-17.95814558 347.05334035 -18.92033649 346.11076428 -19.88571167 345.17147827 C-23.35911102 341.78374741 -26.78729674 338.35199157 -30.21484375 334.91796875 C-31.47882249 333.65466468 -32.74294955 332.39150899 -34.00721741 331.12849426 C-36.64030836 328.49686939 -39.27160244 325.86346472 -41.90161133 323.22875977 C-45.27653114 319.84810795 -48.65596843 316.47201305 -52.03673458 313.09720898 C-54.64040062 310.49714806 -57.24169075 307.89472067 -59.84225655 305.29155922 C-61.08829881 304.04484937 -62.33508574 302.79888331 -63.58262444 301.55367088 C-65.31784479 299.82098001 -67.04984472 298.08513389 -68.78100586 296.34838867 C-69.29783432 295.83358444 -69.81466278 295.31878021 -70.34715271 294.78837585 C-73.35673965 291.76071022 -74.81744739 290.14095381 -75.5 285.875 C-74.3531166 276.98665366 -63.79598277 269.66431284 -57.69140625 263.59375 C-56.7146999 262.61891355 -55.73821766 261.64385251 -54.76194763 260.6685791 C-52.21772539 258.12813699 -49.67051264 255.59071491 -47.12261963 253.05395508 C-44.51284118 250.45448873 -41.90596518 247.85211506 -39.29882812 245.25 C-34.20202128 240.16385082 -29.10204492 235.0808953 -24 230 C-25.06221362 229.99761165 -26.12442724 229.99522329 -27.21882915 229.99276257 C-53.04904655 229.93400257 -78.87917041 229.85814146 -104.70928478 229.76428509 C-117.20046839 229.71929418 -129.69162328 229.6798871 -142.18286133 229.65356445 C-153.06854032 229.63061108 -163.95412867 229.59724286 -174.83973581 229.55129844 C-180.60510219 229.52733037 -186.37037859 229.50862507 -192.13579369 229.50238609 C-197.56042188 229.49635148 -202.98481975 229.4764104 -208.40936279 229.44572449 C-210.40197973 229.4369182 -212.39462673 229.43322702 -214.38726234 229.43499184 C-217.10517831 229.43663923 -219.8223877 229.41999103 -222.54020691 229.39872742 C-223.72650004 229.40599878 -223.72650004 229.40599878 -224.9367587 229.41341704 C-230.72050265 229.33859781 -233.9473044 228.0526956 -238 224 C-238.20936985 221.03888487 -238.29363033 218.17056218 -238.29052734 215.20751953 C-238.29724457 214.29681702 -238.30396179 213.3861145 -238.31088257 212.44781494 C-238.32993805 209.42609252 -238.33379064 206.40459133 -238.3359375 203.3828125 C-238.34236047 201.2877493 -238.34908844 199.19268701 -238.35610962 197.09762573 C-238.36810149 192.70096761 -238.37178851 188.30438817 -238.37060547 183.90771484 C-238.37040224 178.26931396 -238.39770023 172.6314169 -238.43214989 166.99313545 C-238.45437075 162.66431352 -238.45844448 158.33561371 -238.45738602 154.00674057 C-238.4597494 151.92787821 -238.46861418 149.84901285 -238.48405075 147.77020645 C-238.50361214 144.86353393 -238.49791129 141.95795914 -238.48583984 139.05126953 C-238.49707886 138.1898233 -238.50831787 137.32837708 -238.51989746 136.44082642 C-238.45838992 130.62264118 -238.45838992 130.62264118 -236.15713501 127.49679565 C-231.91227228 124.55136476 -227.74249923 124.84787328 -222.78071594 124.84178162 C-221.50892802 124.83437465 -221.50892802 124.83437465 -220.21144742 124.82681805 C-217.36012386 124.81141561 -214.50882287 124.80307499 -211.6574707 124.79467773 C-209.61764323 124.78510137 -207.57781776 124.77509143 -205.53799438 124.76467896 C-199.99084102 124.73759765 -194.44367911 124.71660555 -188.89649606 124.69667697 C-183.10287173 124.6748373 -177.30927381 124.64743875 -171.51567078 124.62062073 C-160.54037685 124.5706665 -149.56506829 124.5257378 -138.5897457 124.48259836 C-126.09654692 124.43324931 -113.60337464 124.37832254 -101.11020148 124.32291877 C-75.40682569 124.20905682 -49.7034245 124.10222696 -24 124 C-24.6241832 123.37803741 -25.24836639 122.75607483 -25.89146423 122.11526489 C-31.76538782 116.2613553 -37.63691991 110.40505991 -43.50575924 104.54605293 C-46.52326965 101.5337673 -49.54170581 98.52242149 -52.56225586 95.51318359 C-55.47569406 92.6105886 -58.38670249 89.70557741 -61.29602242 86.79885483 C-62.40795765 85.68877124 -63.52077452 84.57957004 -64.6344738 83.47125626 C-66.19084987 81.92210958 -67.74409834 80.36989179 -69.29663086 78.81689453 C-70.18265488 77.93309113 -71.06867889 77.04928772 -71.98155212 76.13870239 C-74.45937402 73.51325753 -74.92615023 72.46156108 -75.5 68.875 C-74.26499291 59.30369506 -61.60265071 50.45723236 -54.91796875 43.78515625 C-53.65466468 42.52117751 -52.39150899 41.25705045 -51.12849426 39.99278259 C-48.49686939 37.35969164 -45.86346472 34.72839756 -43.22875977 32.09838867 C-39.84810795 28.72346886 -36.47201305 25.34403157 -33.09720898 21.96326542 C-30.49714806 19.35959938 -27.89472067 16.75830925 -25.29155922 14.15774345 C-24.04484937 12.91170119 -22.79888331 11.66491426 -21.55367088 10.41737556 C-19.82098001 8.68215521 -18.08513389 6.95015528 -16.34838867 5.21899414 C-15.83358444 4.70216568 -15.31878021 4.18533722 -14.78837585 3.65284729 C-9.86123736 -1.24487043 -6.7025816 -1.84327405 0 0 Z " fill="#4BAF4F" transform="translate(289,79)"/>
</svg>
